<svg width="29" height="23" viewBox="0 0 29 23" fill="none" xmlns="http://www.w3.org/2000/svg">
<mask id="mask0_647_4030" style="mask-type:luminance" maskUnits="userSpaceOnUse" x="0" y="0" width="29" height="23">
<path d="M28.6647 0.5H0.335938V22.5H28.6647V0.5Z" fill="white"/>
</mask>
<g mask="url(#mask0_647_4030)">
<mask id="mask1_647_4030" style="mask-type:luminance" maskUnits="userSpaceOnUse" x="-26" y="-31" width="81" height="84">
<path d="M-25.1289 -30.0996H54.7341V52.7982H-25.1289V-30.0996Z" fill="white"/>
</mask>
<g mask="url(#mask1_647_4030)">
<g opacity="0.906939">
<path d="M21.4065 2.04883C24.7672 3.91829 27.0433 7.50623 27.0433 11.6214C27.0433 15.739 24.7645 19.3288 21.4004 21.1973" stroke="#1CB0F6" stroke-width="2.44224" stroke-linecap="round"/>
</g>
<path d="M18.7197 6.97168C20.3408 7.88816 21.4362 9.62783 21.4362 11.6213C21.4362 13.6184 20.3369 15.3608 18.7109 16.2759" stroke="#1CB0F6" stroke-width="2.22661" stroke-linecap="round"/>
<mask id="mask2_647_4030" style="mask-type:luminance" maskUnits="userSpaceOnUse" x="-15" y="-18" width="112" height="58">
<path d="M-14.2246 -17.0283H96.5901V39.7275H-14.2246V-17.0283Z" fill="white"/>
</mask>
<g mask="url(#mask2_647_4030)">
<path d="M3.26524 6.32191H7.32513C8.83082 6.32191 10.0533 7.45702 10.0533 8.85515V14.6738C10.0533 16.0719 8.83082 17.207 7.32513 17.207H3.26524C1.75955 17.207 0.537109 16.0719 0.537109 14.6738V8.85515C0.537109 7.45702 1.75955 6.32191 3.26524 6.32191ZM4.91106 6.33021L12.4643 1.40676C12.9762 1.07453 13.6769 1.18989 14.0297 1.66055C14.1638 1.83589 14.2334 2.04815 14.2334 2.26041V21.1559C14.2334 21.7327 13.7315 22.1988 13.1104 22.1988C12.8818 22.1988 12.6581 22.1342 12.4643 22.0096L4.91106 17.0861C4.6129 16.8923 4.43401 16.5739 4.43401 16.2325V7.18386C4.43401 6.84701 4.6129 6.52863 4.91106 6.33021Z" fill="#1CB0F6"/>
</g>
</g>
</g>
</svg>
